<svg id="Artwork" xmlns="http://www.w3.org/2000/svg" viewBox="0 0 74 74"><defs><style>.cls-1{fill:#231f20;}</style></defs><path class="cls-1" d="M66.63,50.75h0C66.6,37,59.5,25.82,50.81,25.82S35,37,35,50.74c0,0,0,0,0,0s0,0,0,0a15.92,15.92,0,0,0,15.81,16,16.52,16.52,0,0,0,2-.14A35,35,0,0,1,1,36a34.58,34.58,0,0,1,.52-5.93L4.3,36.4a1,1,0,0,0,.91.6,1.1,1.1,0,0,0,.4-.08,1,1,0,0,0,.52-1.32l-4-9.18,0-.05a.88.88,0,0,0-.12-.17.47.47,0,0,0-.11-.13L1.67,26a.76.76,0,0,0-.18-.09l-.05,0H1.11l-.21.05-.12,0,0,0a.83.83,0,0,0-.18.13l-.13.11a1.4,1.4,0,0,0-.1.16.76.76,0,0,0-.09.18l0,0A37.42,37.42,0,0,0-1,36,37,37,0,0,0,54.5,68.05a1,1,0,0,0,.37-1.37,1.08,1.08,0,0,0-.32-.32A16,16,0,0,0,66.63,50.83s0,0,0,0ZM50.81,64.83A13.92,13.92,0,0,1,37,50.83h0v-.06h0c0-12.65,6.22-22.93,13.81-22.93S64.6,38.1,64.63,50.75a.06.06,0,0,0,0,0,.08.08,0,0,0,0,0A13.93,13.93,0,0,1,50.81,64.83Z" transform="translate(1 1)"/><path class="cls-1" d="M73,36A37,37,0,0,0,36-1,36.67,36.67,0,0,0,20.74,2.29a1,1,0,0,0-.55.69,2.55,2.55,0,0,0-.73-.33C17,2,12.87,4.24,9.67,9.86a12,12,0,0,0-3,3.57s0,0,0,.05a.64.64,0,0,0-.08.19,1.21,1.21,0,0,0,0,.18c0,.05,0,.11,0,.17a1.36,1.36,0,0,0,0,.21.11.11,0,0,1,0,0c0,.05,0,.08.06.11a1.18,1.18,0,0,0,.11.19l.14.14.1.09.06,0,.09,0A1.11,1.11,0,0,0,7.4,15h.13a.93.93,0,0,0,.29-.05h0c2.35-.79,4.76-1.09,6.58,1.82A34.75,34.75,0,0,0,9.62,34.41h0a26.38,26.38,0,0,0,1.11,9.19l.42,1.66,0,.08a.42.42,0,0,0,.06.14.94.94,0,0,0,.12.18l.09.1.19.13.11.06a1.15,1.15,0,0,0,.36.07h0c12.25,0,22.22-11.16,22.22-24.87a1,1,0,0,0-1-1c-.7,0-2.35-3-2.35-8.86a.76.76,0,0,0,0-.16,1,1,0,0,0,0-.17.14.14,0,0,0,0-.06h0a9.07,9.07,0,0,0-8.48-6.35h0c-.35,0-.7,0-1,0a2,2,0,0,0-.14-.41,1.05,1.05,0,0,0,.35-.08A35,35,0,0,1,71,36a35.57,35.57,0,0,1-.34,4.84l-3.55-5.39a1,1,0,0,0-1.38-.29,1,1,0,0,0-.29,1.39l4.94,7.51a.78.78,0,0,0,.24.24l.06.05a.93.93,0,0,0,.31.13h0l.21,0a1.18,1.18,0,0,0,.31,0l.09-.05a.59.59,0,0,0,.14-.06s0,0,0,0a1.21,1.21,0,0,0,.19-.2l.06-.07a.81.81,0,0,0,.14-.33A36.93,36.93,0,0,0,73,36ZM10.64,12.37a6.44,6.44,0,0,0-.77,0,6.7,6.7,0,0,1,.51-.54,4.94,4.94,0,0,0,.49.3A2.29,2.29,0,0,0,10.64,12.37Zm3,.79.52-.16h0a.94.94,0,0,0,.32-.19l.08-.1a1,1,0,0,0,.15-.2c0-.05,0-.1.05-.15s0-.11.05-.17v0a1.23,1.23,0,0,0,0-.2.65.65,0,0,0,0-.2,0,0,0,0,1,0,0c0-.05-.05-.08-.07-.13l-.11-.18a.81.81,0,0,0-.14-.12.91.91,0,0,0-.16-.11.73.73,0,0,0-.19-.07l-.14,0a6.76,6.76,0,0,1-1.85-.53c3-2,7.41-2.16,8.88-1.09a.9.9,0,0,1,.37,1A12.35,12.35,0,0,0,15.63,15,6.84,6.84,0,0,0,13.63,13.16Zm18.69,8.75C32,33.88,23.46,43.55,12.9,44c-.08-.31-.16-.61-.23-.9a24.34,24.34,0,0,1-1.07-7.68C20.25,34.93,27.5,28,30,18.63A5.49,5.49,0,0,0,32.32,21.91ZM29,11.48c-.08,11.71-7.73,21.29-17.33,21.93.33-9.93,5.27-19.84,10.69-21.14h0a1.15,1.15,0,0,0,.32-.14l.07-.06a1.54,1.54,0,0,0,.17-.19l.06-.09,0-.06a3,3,0,0,0-.86-3.89,6,6,0,0,0-2.9-1,15.73,15.73,0,0,1,3.15-.32h0A7.05,7.05,0,0,1,29,11.48ZM15.44,6C17,4.77,18.28,4.4,18.93,4.58a.61.61,0,0,1,.37.26A17.63,17.63,0,0,0,15.44,6Z" transform="translate(1 1)"/></svg>